<svg xmlns="http://www.w3.org/2F5C39C/svg" viewBox="0 0 534.6 281.01"><defs><style>.cls-1,.cls-12,.cls-2,.cls-3,.cls-7{fill:none;}.cls-1,.cls-3,.cls-7{stroke:#f58025;}.cls-1,.cls-10,.cls-12,.cls-2,.cls-3,.cls-4,.cls-5,.cls-6,.cls-7,.cls-8,.cls-9{stroke-miterlimit:3.86;}.cls-1{stroke-width:12.38px;}.cls-10,.cls-12,.cls-2,.cls-4,.cls-8,.cls-9{stroke:#fff;}.cls-2{stroke-width:9.28px;}.cls-3{stroke-width:7.22px;}.cls-4,.cls-5,.cls-6{fill:#005cab;}.cls-4{stroke-width:4.13px;}.cls-5,.cls-6{stroke:#005cab;}.cls-5{stroke-width:1.55px;}.cls-6{stroke-width:1.03px;}.cls-7{stroke-width:7.73px;}.cls-8{fill:#f58025;stroke-width:4.64px;}.cls-10,.cls-11,.cls-13,.cls-9{fill:#fff;}.cls-9{stroke-width:0;}.cls-10,.cls-12{stroke-width:0.77px;}.cls-11{fill-rule:evenodd;}</style></defs><title>Asset 1</title><g id="Layer_2" data-name="Layer 2"><g id="Layer_1-2" data-name="Layer 1"><path class="cls-1" d="M355.77,52.64h61V57.9c-17.64,0-20.11,6.8-20.11,24.44v86c0,35,18.57,52.59,42.07,52.59,23.83,0,39-15.16,49.5-35.58v-103c0-17.64-2.47-24.44-20.11-24.44V52.64H528.4V57.9c-17,0-20.11,5.88-20.11,24.44V198.67c0,18.55,3.1,24.43,20.11,24.43v5.26H488.18V199.9c-7.73,12.07-22.58,33.72-56.92,33.72-34,0-55.38-29.69-55.38-63.11V82.34c0-18.57-3.09-24.44-20.11-24.44V52.64ZM181,57.9V52.64H129V57.9c9,0,20.11,2.78,13,23.2L99,203.61,55.69,81.1c-7.11-20.42,4-23.2,13-23.2V52.64H6.19V57.9c12.38,0,21,3.09,28.46,24.13L78.27,204.54c5,14.23-3.4,18.87-11.13,18.87v5H120v-5c-7.74,0-16.09-4.64-11.14-18.87L152.52,82C160,61,168.61,57.9,181,57.9Z"/><path class="cls-2" d="M355.77,52.64h61V57.9c-17.64,0-20.11,6.8-20.11,24.44v86c0,35,18.57,52.59,42.07,52.59,23.83,0,39-15.16,49.5-35.58v-103c0-17.64-2.47-24.44-20.11-24.44V52.64H528.4V57.9c-17,0-20.11,5.88-20.11,24.44V198.67c0,18.55,3.1,24.43,20.11,24.43v5.26H488.18V199.9c-7.73,12.07-22.58,33.72-56.92,33.72-34,0-55.38-29.69-55.38-63.11V82.34c0-18.57-3.09-24.44-20.11-24.44V52.64Z"/><path class="cls-3" d="M350.06,208.26c0-43.16-38.52-65.44-62.65-82.6C259.1,105.7,225.69,83,225.69,56c0-26,22.74-39.44,46.4-39.44s49.66,16.24,55.69,52.9h7.43V6.39h-7c-.93,2.32-2.33,7.89-7.9,7.89-11.13,0-24.59-10.67-55.22-10.67S199.7,27.27,199.7,69.5c0,41.77,40.84,66.36,64.51,83.54s56.61,40.83,56.61,68.21c0,28.77-21.35,43.62-50.58,43.62-28.31,0-59.4-22.74-65.43-63.11h-7.9v72.86h7.9c2.31-5.1,4.64-8.35,10.67-8.35,8.35,0,25.52,11.13,60.79,11.13,39,0,73.79-23.2,73.79-69.14Z"/><path class="cls-4" d="M350.06,208.26c0-43.16-38.52-65.44-62.65-82.6C259.1,105.7,225.69,83,225.69,56c0-26,22.74-39.44,46.4-39.44s49.66,16.24,55.69,52.9h7.43V6.39h-7c-.93,2.32-2.33,7.89-7.9,7.89-11.13,0-24.59-10.67-55.22-10.67S199.7,27.27,199.7,69.5c0,41.77,40.84,66.36,64.51,83.54s56.61,40.83,56.61,68.21c0,28.77-21.35,43.62-50.58,43.62-28.31,0-59.4-22.74-65.43-63.11h-7.9v72.86h7.9c2.31-5.1,4.64-8.35,10.67-8.35,8.35,0,25.52,11.13,60.79,11.13,39,0,73.79-23.2,73.79-69.14Z"/><path class="cls-2" d="M181,57.9V52.64H129V57.9c9,0,20.11,2.78,13,23.2L99,203.61,55.69,81.1c-7.11-20.42,4-23.2,13-23.2V52.64H6.19V57.9c12.38,0,21,3.09,28.46,24.13L78.27,204.54c5,14.23-3.4,18.87-11.13,18.87v5H120v-5c-7.74,0-16.09-4.64-11.14-18.87L152.52,82C160,61,168.61,57.9,181,57.9Z"/><path class="cls-5" d="M181,57.9V52.64H129V57.9c9,0,20.11,2.78,13,23.2L99,203.61,55.69,81.1c-7.11-20.42,4-23.2,13-23.2V52.64H6.19V57.9c12.38,0,21,3.09,28.46,24.13L78.27,204.54c5,14.23-3.4,18.87-11.13,18.87v5H120v-5c-7.74,0-16.09-4.64-11.14-18.87L152.52,82C160,61,168.61,57.9,181,57.9Z"/><path class="cls-6" d="M355.77,52.64h61V57.9c-17.64,0-20.11,6.8-20.11,24.44v86c0,35,18.57,52.59,42.07,52.59,23.83,0,39-15.16,49.5-35.58v-103c0-17.64-2.47-24.44-20.11-24.44V52.64H528.4V57.9c-17,0-20.11,5.88-20.11,24.44V198.67c0,18.55,3.1,24.43,20.11,24.43v5.26H488.18V199.9c-7.73,12.07-22.58,33.72-56.92,33.72-34,0-55.38-29.69-55.38-63.11V82.34c0-18.57-3.09-24.44-20.11-24.44V52.64Z"/><polygon class="cls-7" points="3.87 117.3 530.74 117.3 530.74 182.27 3.87 182.27 3.87 117.3 3.87 117.3"/><polygon class="cls-8" points="3.87 117.3 530.74 117.3 530.74 182.27 3.87 182.27 3.87 117.3 3.87 117.3"/><path class="cls-9" d="M41.26,168.22h2.1l10.4-26.07c.11-.28,4-10.11,4.31-10.74a4,4,0,0,1,3.81-2.21v-1.48c-1.76.06-3.52.11-5.28.11-2.22,0-4.49,0-6.71-.11v1.48c2,.11,4.32-.06,4.32,2.61,0,1.87-1.19,4.66-1.76,6.48-1.19,3.69-2.79,7.33-4.15,11L44,160.55l-7.56-19.43c-.63-1.64-3.64-8.52-3.64-10.39a1.41,1.41,0,0,1,1.48-1.36c.8-.12,1.59-.12,2.45-.17v-1.48c-2.39,0-4.83.11-7.22.11-2.67,0-5.34,0-8-.11v1.48c3.75,0,4.66,1.08,6,4.48,1.3,3.7,2.95,7.39,4.37,11l9.43,23.52Z"/><path class="cls-10" d="M73.8,161.05c0,3.31-1.8,3.36-4.31,3.41v1.22c2.37-.05,4.59-.09,6.87-.09,2.08,0,4.11.09,6.39.09v-1.22c-2.51-.05-4.31-.1-4.31-3.41V137.28c0-3.31,1.8-3.36,4.31-3.41v-1.23c-2.37.05-4.55.1-6.73.1s-4.3-.05-6.53-.1v1.23c2.51,0,4.31.1,4.31,3.41v23.77Z"/><path class="cls-11" d="M108.39,150.06c3.41,5.35,6.58,10.89,10.89,15.62,1.32-.05,2.7-.09,4-.09s2.37.09,3.55.09v-1.22c-2.41,0-3.83-1.28-5.34-3-2-2.27-4.31-6.06-8.62-12.36,3.69-1.08,6.72-4.06,6.72-8.09,0-3.36-2-8.38-10.93-8.38-3,0-4.69.1-6.35.1-2.32,0-4.59-.05-7.19-.1v1.23c2.51,0,4.31.1,4.31,3.41v24c0,2.7-2,3.32-4.31,3.18v1.22c2.36-.05,4.59-.09,6.86-.09,2.08,0,4.12.09,6.39.09v-1.22c-2.51-.05-4.31-.1-4.31-3.41v-11Zm6.3-8.75c0,3.4-2.27,7.24-8.1,7.24a13.45,13.45,0,0,1-2.51-.24V134.44a15.83,15.83,0,0,1,2.84-.28c5.59,0,7.77,3,7.77,7.15Z"/><path class="cls-12" d="M108.39,150.06c3.41,5.35,6.58,10.89,10.89,15.62,1.32-.05,2.7-.09,4-.09s2.37.09,3.55.09v-1.22c-2.41,0-3.83-1.28-5.34-3-2-2.27-4.31-6.06-8.62-12.36,3.69-1.08,6.72-4.06,6.72-8.09,0-3.36-2-8.38-10.93-8.38-3,0-4.69.1-6.35.1-2.32,0-4.59-.05-7.19-.1v1.23c2.51,0,4.31.1,4.31,3.41v24c0,2.7-2,3.32-4.31,3.18v1.22c2.36-.05,4.59-.09,6.86-.09,2.08,0,4.12.09,6.39.09v-1.22c-2.51-.05-4.31-.1-4.31-3.41v-11Zm6.3-8.75c0,3.4-2.27,7.24-8.1,7.24a13.45,13.45,0,0,1-2.51-.24V134.44a15.83,15.83,0,0,1,2.84-.28c5.59,0,7.77,3,7.77,7.15Z"/><path class="cls-10" d="M164.86,134.49a34.64,34.64,0,0,0-12.16-2.56c-9.9,0-17.61,7.34-17.61,17.28,0,6.77,4.87,17.19,18.18,17.19,4.11,0,8.47-1.33,12.3-2.71v-.8l-.71-.71V156c0-3.46,1.8-3.46,3.36-3.46V151.3c-1.42,0-3.59.09-5.77.09s-4.31,0-6.53-.09v1.22c2.51,0,4.3,0,4.3,3.46V163a10.2,10.2,0,0,1-6.39,1.85c-8.52,0-13.54-8.19-13.54-16.38,0-7.72,4.83-15.05,13.21-15.05,5.3,0,9.9,2.17,11.13,7.67h1l-.81-6.63Z"/><path class="cls-10" d="M184.17,161.05c0,3.31-1.8,3.36-4.3,3.41v1.22c2.36-.05,4.59-.09,6.86-.09,2.08,0,4.12.09,6.39.09v-1.22c-2.51-.05-4.31-.1-4.31-3.41V137.28c0-3.31,1.8-3.36,4.31-3.41v-1.23c-2.37.05-4.54.1-6.72.1s-4.31-.05-6.53-.1v1.23c2.5,0,4.3.1,4.3,3.41v23.77Z"/><path class="cls-10" d="M238.08,138.75c0-4.64,1.56-4.88,4.45-4.88v-1.23c-1.85,0-3.65.1-5.49.1-2.18,0-4.41-.05-6.58-.1v1.23c4.73,0,5.73,1.38,5.73,5.73v18.84c-3.22-3.5-7.67-8.19-11.7-12.64-5.39-6-9.8-10.27-11.74-13.16-1.27,0-2.6.1-3.88.1-1.46,0-2.89-.05-4.35-.1v1.23c4.07,0,5.82,1.47,5.82,5.54v19c0,6-2.18,6-5.07,6v1.22c2.09-.05,4.22-.09,6.3-.09s4.22.09,6.3.09v-1.22c-5.12,0-5.64-1.33-5.64-7.87V138.94L237,166.11h1.09V138.75Z"/><path class="cls-10" d="M258.23,161.05c0,3.31-1.79,3.36-4.3,3.41v1.22c2.36-.05,4.59-.09,6.86-.09,2.08,0,4.12.09,6.39.09v-1.22c-2.51-.05-4.31-.1-4.31-3.41V137.28c0-3.31,1.8-3.36,4.31-3.41v-1.23c-2.36.05-4.54.1-6.72.1s-4.31-.05-6.53-.1v1.23c2.51,0,4.3.1,4.3,3.41v23.77Z"/><path class="cls-11" d="M295.76,131.32H295a5.86,5.86,0,0,1-2.75,2.08,4.75,4.75,0,0,1,.1,1.23,14.39,14.39,0,0,1-1,4.26l-6.06,16.9c-.61,1.75-1.18,3.6-1.94,5.3-1.18,2.65-1.7,3-4.59,3.37v1.22c1.9-.05,3.83-.09,5.73-.09s3.74.09,5.58.09v-1.22h-1.09c-1.65-.1-3.21,0-3.21-2.23a22.71,22.71,0,0,1,1.28-5.64l1-3.31h11.12l2.37,6.87a11.79,11.79,0,0,1,.71,2.74c0,1.32-1.42,1.57-2.61,1.57h-.85v1.22c2.32-.05,4.59-.09,6.91-.09,1.8,0,3.65.09,5.45.09v-1.22a4.5,4.5,0,0,1-3.65-1.28c-.75-1-2-5.07-2.7-6.92l-9-24.94Zm-2.46,6.1h.09l5.07,13.92h-9.75l4.59-13.92Z"/><path class="cls-12" d="M295.76,131.32H295a5.86,5.86,0,0,1-2.75,2.08,4.75,4.75,0,0,1,.1,1.23,14.39,14.39,0,0,1-1,4.26l-6.06,16.9c-.61,1.75-1.18,3.6-1.94,5.3-1.18,2.65-1.7,3-4.59,3.37v1.22c1.9-.05,3.83-.09,5.73-.09s3.74.09,5.58.09v-1.22h-1.09c-1.65-.1-3.21,0-3.21-2.23a22.71,22.71,0,0,1,1.28-5.64l1-3.31h11.12l2.37,6.87a11.79,11.79,0,0,1,.71,2.74c0,1.32-1.42,1.57-2.61,1.57h-.85v1.22c2.32-.05,4.59-.09,6.91-.09,1.8,0,3.65.09,5.45.09v-1.22a4.5,4.5,0,0,1-3.65-1.28c-.75-1-2-5.07-2.7-6.92l-9-24.94Zm-2.46,6.1h.09l5.07,13.92h-9.75l4.59-13.92Z"/><path class="cls-13" d="M331.27,166.36a20.86,20.86,0,0,0,8.69,1.93c6.7,0,13.35-4.14,13.35-11.53,0-13.06-17.5-10.17-17.5-20.73,0-4.15,2.5-7.27,6.82-7.27,4.09,0,6.7,2.33,7.33,6.3h1.3l-.91-7.27a47.06,47.06,0,0,0-6.92-.85c-6.94,0-12.16,3.8-12.16,11.13,0,13.41,16.81,10.28,16.81,20.85a7.42,7.42,0,0,1-7.78,7.55c-4.72,0-7.9-4.14-8.86-8.4h-1.31l1.14,8.29Z"/><path class="cls-10" d="M393.79,131.32h-1c-.19.89-1.37,1.32-3.08,1.32H368.23c-1.18,0-2.46,0-3-1.32h-.95l-.52,7.52H365c.81-3.07,1-4.26,5.26-4.26h6.2v26.47c0,3.31-1.8,3.36-4.31,3.41v1.22c2.37-.05,4.59-.09,6.87-.09,2.08,0,4.12.09,6.39.09v-1.22c-2.51-.05-4.31-.1-4.31-3.41V134.58h7.2c3.78,0,3.64,1.71,3.78,4.26h1.28l.42-7.52Z"/><path class="cls-11" d="M418.4,131.32h-.81a5.88,5.88,0,0,1-2.74,2.08,5.27,5.27,0,0,1,.09,1.23,14.39,14.39,0,0,1-1,4.26l-6.06,16.9c-.62,1.75-1.18,3.6-1.94,5.3-1.18,2.65-1.7,3-4.59,3.37v1.22c1.89-.05,3.83-.09,5.73-.09s3.73.09,5.58.09v-1.22h-1.09c-1.65-.1-3.22,0-3.22-2.23a23.17,23.17,0,0,1,1.28-5.64l1-3.31h11.13l2.37,6.87a12.32,12.32,0,0,1,.71,2.74c0,1.32-1.43,1.57-2.61,1.57h-.85v1.22c2.32-.05,4.59-.09,6.91-.09,1.8,0,3.64.09,5.44.09v-1.22a4.49,4.49,0,0,1-3.64-1.28c-.76-1-2-5.07-2.7-6.92l-9-24.94Zm-2.46,6.1H416l5.07,13.92h-9.75l4.59-13.92Z"/><path class="cls-12" d="M418.4,131.32h-.81a5.88,5.88,0,0,1-2.74,2.08,5.27,5.27,0,0,1,.09,1.23,14.39,14.39,0,0,1-1,4.26l-6.06,16.9c-.62,1.75-1.18,3.6-1.94,5.3-1.18,2.65-1.7,3-4.59,3.37v1.22c1.89-.05,3.83-.09,5.73-.09s3.73.09,5.58.09v-1.22h-1.09c-1.65-.1-3.22,0-3.22-2.23a23.17,23.17,0,0,1,1.28-5.64l1-3.31h11.13l2.37,6.87a12.32,12.32,0,0,1,.71,2.74c0,1.32-1.43,1.57-2.61,1.57h-.85v1.22c2.32-.05,4.59-.09,6.91-.09,1.8,0,3.64.09,5.44.09v-1.22a4.49,4.49,0,0,1-3.64-1.28c-.76-1-2-5.07-2.7-6.92l-9-24.94Zm-2.46,6.1H416l5.07,13.92h-9.75l4.59-13.92Z"/><path class="cls-10" d="M471.37,131.32h-1c-.18.89-1.37,1.32-3.07,1.32H445.81c-1.19,0-2.46,0-3-1.32h-.94l-.52,7.52h1.23c.8-3.07,1-4.26,5.25-4.26H454v26.47c0,3.31-1.79,3.36-4.31,3.41v1.22c2.37-.05,4.6-.09,6.87-.09,2.08,0,4.12.09,6.39.09v-1.22c-2.51-.05-4.31-.1-4.31-3.41V134.58h7.2c3.78,0,3.64,1.71,3.78,4.26h1.28l.43-7.52Z"/><path class="cls-10" d="M492.24,134.16h5.53c4.74,0,6.87,1.32,7.58,5.77l.94-.24v-7.05c-4.59.1-9.09.1-13.63.1-3.17,0-6.39,0-9.56-.1v1.23c3.74.14,4.5.34,4.5,4.22v21c0,4.59-.39,5.36-4.5,5.36v1.22c3.5-.09,7-.09,10.5-.09,4.74,0,9.48.09,14.21.09a61.78,61.78,0,0,1,1.94-7.24l-1.14-.19c-1.84,5.07-3.93,5.68-8.56,5.92h-2.94c-4.69,0-4.87-1.33-4.87-6.58v-8.05h5.06c3.64,0,5.16,0,5.16,4.55h1c0-1.52-.19-3.74-.19-5.26,0-1.7.09-4.26.19-5.3h-1c-.14,1.09-.14,4.07-4,4.07h-6.24V134.16Z"/></g></g></svg>